<?xml version="1.0" encoding="UTF-8" standalone="no"?>
<!DOCTYPE svg PUBLIC "-//W3C//DTD SVG 1.1//EN" "http://www.w3.org/Graphics/SVG/1.1/DTD/svg11.dtd">
<svg width="100%" height="100%" viewBox="0 0 600 600" version="1.1" xmlns="http://www.w3.org/2000/svg" xmlns:xlink="http://www.w3.org/1999/xlink" xml:space="preserve" xmlns:serif="http://www.serif.com/" style="fill-rule:evenodd;clip-rule:evenodd;stroke-linejoin:round;stroke-miterlimit:2;">
    <g transform="matrix(0.595335,-0.752531,0.752531,0.595335,-2092.27,373.043)">
        <path d="M1670.63,2157.8C1670.63,2154.8 1668.79,2152.1 1665.99,2151.01C1663.2,2149.91 1660.02,2150.64 1657.98,2152.84C1649.21,2162.32 1641.06,2170.53 1634.37,2176.57C1624.77,2185.24 1612.78,2193.22 1599.39,2196.18C1596.05,2196.92 1593.67,2199.88 1593.67,2203.3L1593.67,2258.25C1593.67,2260.53 1594.73,2262.67 1596.55,2264.05C1598.36,2265.43 1600.72,2265.88 1602.91,2265.27C1616.9,2261.39 1629.46,2252.15 1639.59,2242.18C1647.78,2234.12 1658,2222.8 1668.93,2209.74C1670.03,2208.43 1670.63,2206.77 1670.63,2205.06L1670.63,2157.8ZM1514.72,2150.99C1512.69,2148.77 1509.51,2148.03 1506.7,2149.12C1503.9,2150.21 1502.06,2152.91 1502.06,2155.92L1502.06,2202.98C1502.06,2204.68 1502.65,2206.33 1503.74,2207.64C1515.33,2221.59 1526.2,2233.69 1534.83,2242.18C1544.53,2251.72 1556.45,2260.6 1569.71,2264.74C1571.93,2265.43 1574.34,2265.03 1576.21,2263.65C1578.07,2262.28 1579.18,2260.1 1579.18,2257.78L1579.18,2202.93C1579.18,2199.58 1576.9,2196.66 1573.64,2195.86C1560.81,2192.66 1549.32,2184.94 1540.05,2176.57C1532.93,2170.14 1524.15,2161.25 1514.72,2150.99ZM1694,1684.92C1691.84,1684.44 1689.57,1684.96 1687.85,1686.35C1686.12,1687.73 1685.12,1689.82 1685.12,1692.03L1685.12,1699.89C1685.12,1703.32 1687.51,1706.29 1690.86,1707.01C1712.33,1711.68 1732.62,1717.83 1749.29,1725.63C1789.34,1744.35 1822.61,1766.41 1828.5,1820.78C1830.7,1841.03 1825.43,1873.67 1815.94,1898.3C1798.9,1942.52 1770.6,2002.06 1717.31,2079.56C1708.47,2092.41 1697.8,2106.33 1686.77,2119.76C1685.7,2121.07 1685.12,2122.7 1685.12,2124.39L1685.12,2168.28C1685.12,2171.41 1687.13,2174.2 1690.11,2175.19C1693.09,2176.18 1696.37,2175.16 1698.25,2172.64C1709.52,2157.58 1720.36,2142.08 1729.42,2127.72C1787.06,2036.41 1817.67,1966.24 1836.09,1914.14C1846.45,1884.86 1852.17,1846.04 1849.78,1821.97C1843.32,1757.06 1806.97,1730.64 1763.08,1708.29C1743.48,1698.3 1719.36,1690.58 1694,1684.92ZM1487.57,1692.36C1487.57,1690.14 1486.56,1688.04 1484.83,1686.66C1483.09,1685.28 1480.82,1684.76 1478.66,1685.25C1453.98,1690.88 1430.56,1698.5 1411.34,1708.29C1367.45,1730.64 1331.1,1757.06 1324.64,1821.97C1322.24,1846.04 1327.97,1884.86 1338.32,1914.14C1356.75,1966.24 1387.36,2036.41 1445,2127.72C1453.59,2141.34 1463.78,2155.97 1474.42,2170.3C1476.3,2172.82 1479.58,2173.86 1482.57,2172.87C1485.55,2171.88 1487.57,2169.09 1487.57,2165.95L1487.57,2122.28C1487.57,2120.6 1486.99,2118.97 1485.93,2117.67C1475.51,2104.89 1465.49,2091.74 1457.11,2079.56C1403.82,2002.06 1375.52,1942.52 1358.48,1898.3C1348.99,1873.67 1343.72,1841.03 1345.91,1820.78C1351.81,1766.41 1385.08,1744.35 1425.13,1725.63C1441.49,1717.98 1461.11,1711.9 1481.87,1707.27C1485.2,1706.53 1487.57,1703.57 1487.57,1700.16L1487.57,1692.36ZM1601.22,1710.9C1599.23,1710.81 1597.29,1711.54 1595.85,1712.91C1594.4,1714.29 1593.59,1716.19 1593.59,1718.19L1593.59,1937.41C1593.59,1940.15 1595.12,1942.65 1597.55,1943.9C1605.52,1947.99 1610.99,1956.28 1610.99,1965.85C1610.99,1975.41 1605.52,1983.71 1597.55,1987.79C1595.12,1989.04 1593.59,1991.54 1593.59,1994.28L1593.59,2057.57C1593.59,2059.97 1594.78,2062.22 1596.76,2063.58C1598.75,2064.94 1601.28,2065.23 1603.52,2064.36C1610.68,2061.58 1617.14,2056.96 1622.54,2052.06C1634.59,2041.12 1653.39,2020.17 1669.04,1999.76C1670.02,1998.49 1670.55,1996.93 1670.55,1995.33L1670.55,1893.16C1670.55,1890.43 1669.01,1887.92 1666.58,1886.68C1658.61,1882.59 1653.15,1874.3 1653.15,1864.73C1653.15,1855.17 1658.61,1846.87 1666.58,1842.79C1669.01,1841.54 1670.55,1839.03 1670.55,1836.3L1670.55,1726.55C1670.55,1723.16 1668.21,1720.21 1664.9,1719.45C1644.02,1714.61 1621.26,1711.85 1601.22,1710.9ZM1579.1,1718.34C1579.1,1716.34 1578.27,1714.42 1576.82,1713.04C1575.36,1711.67 1573.4,1710.95 1571.4,1711.06C1550.9,1712.2 1528.13,1715.23 1507.5,1720.4C1504.26,1721.21 1501.98,1724.13 1501.98,1727.47L1501.98,1760.95C1501.98,1763.69 1503.51,1766.2 1505.95,1767.44C1513.92,1771.53 1519.38,1779.82 1519.38,1789.39C1519.38,1798.95 1513.92,1807.25 1505.95,1811.33C1503.51,1812.58 1501.98,1815.09 1501.98,1817.82L1501.98,1989.87C1501.98,1991.43 1502.48,1992.95 1503.42,1994.21C1519.78,2016.27 1540.95,2040.12 1554.11,2052.06C1558.31,2055.87 1563.15,2059.51 1568.47,2062.25C1570.73,2063.41 1573.43,2063.31 1575.6,2061.99C1577.77,2060.67 1579.1,2058.31 1579.1,2055.77L1579.1,1994.28C1579.1,1991.54 1577.57,1989.04 1575.13,1987.79C1567.16,1983.71 1561.7,1975.41 1561.7,1965.85C1561.7,1956.28 1567.16,1947.99 1575.13,1943.9C1577.57,1942.65 1579.1,1940.15 1579.1,1937.41L1579.1,1718.34ZM1695.01,1728.6C1692.77,1727.71 1690.23,1727.99 1688.23,1729.34C1686.23,1730.7 1685.04,1732.96 1685.04,1735.38L1685.04,1836.3C1685.04,1839.03 1686.57,1841.54 1689,1842.79C1696.97,1846.87 1702.43,1855.17 1702.43,1864.73C1702.43,1874.3 1696.97,1882.59 1689,1886.68C1686.57,1887.92 1685.04,1890.43 1685.04,1893.16L1685.04,1952.82C1685.04,1956.07 1687.18,1958.92 1690.31,1959.82C1693.43,1960.72 1696.77,1959.45 1698.5,1956.7C1724.84,1914.85 1740.23,1881.5 1750.16,1855.59C1756.9,1838 1760.63,1814.68 1759.07,1800.22C1754.85,1761.2 1731.19,1745.29 1702.58,1731.86C1700.16,1730.72 1697.63,1729.63 1695.01,1728.6ZM1487.49,1737.09C1487.49,1734.63 1486.25,1732.34 1484.19,1730.99C1482.14,1729.64 1479.54,1729.42 1477.29,1730.4C1476.19,1730.88 1475.12,1731.36 1474.06,1731.86C1445.46,1745.29 1421.79,1761.2 1417.58,1800.22C1416.02,1814.68 1419.74,1838 1426.49,1855.59C1435.89,1880.1 1450.16,1911.28 1473.99,1950.01C1475.7,1952.79 1479.04,1954.1 1482.18,1953.21C1485.32,1952.32 1487.49,1949.45 1487.49,1946.19L1487.49,1817.82C1487.49,1815.09 1485.96,1812.58 1483.52,1811.33C1475.55,1807.25 1470.09,1798.95 1470.09,1789.39C1470.09,1779.82 1475.55,1771.53 1483.52,1767.44C1485.96,1766.2 1487.49,1763.69 1487.49,1760.95L1487.49,1737.09ZM1579.18,1680.36C1579.18,1678.38 1578.37,1676.48 1576.94,1675.1C1575.51,1673.73 1573.58,1673 1571.59,1673.08C1551.66,1673.88 1529.89,1675.99 1508.18,1679.52C1504.65,1680.09 1502.06,1683.14 1502.06,1686.72L1502.06,1694.67C1502.06,1696.8 1502.99,1698.83 1504.61,1700.21C1506.23,1701.6 1508.38,1702.2 1510.48,1701.87C1531.52,1698.57 1552.75,1696.61 1572.16,1695.88C1576.08,1695.74 1579.18,1692.52 1579.18,1688.6L1579.18,1680.36ZM1601.27,1673.04C1599.28,1672.95 1597.35,1673.68 1595.91,1675.06C1594.48,1676.44 1593.67,1678.34 1593.67,1680.33L1593.67,1688.59C1593.67,1692.51 1596.77,1695.73 1600.69,1695.88C1619.9,1696.59 1641.12,1698.51 1662.23,1701.75C1664.33,1702.07 1666.47,1701.46 1668.08,1700.07C1669.7,1698.69 1670.63,1696.67 1670.63,1694.54L1670.63,1686.51C1670.63,1682.93 1668.02,1679.88 1664.48,1679.31C1643.05,1675.9 1621.63,1673.86 1602.07,1673.07C1602.08,1673.07 1601.27,1673.04 1601.27,1673.04Z" style="fill:rgb(10,10,10);"/>
    </g>
</svg>
